<svg width="32" height="24" viewBox="0 0 32 24" fill="none" xmlns="http://www.w3.org/2000/svg">
<path d="M1 2H31C31.552 2 32 1.553 32 1C32 0.447 31.552 0 31 0H1C0.448 0 0 0.447 0 1C0 1.553 0.447 2 1 2Z" fill="#36310D"/>
<path d="M1 24H31C31.552 24 32 23.553 32 23C32 22.447 31.552 22 31 22H1C0.448 22 0 22.447 0 23C0 23.553 0.447 24 1 24Z" fill="#36310D"/>
<path d="M1 13H31C31.552 13 32 12.553 32 12C32 11.447 31.552 11 31 11H1C0.448 11 0 11.447 0 12C0 12.553 0.447 13 1 13Z" fill="#36310D"/>
</svg>
