<svg width="61" height="61" viewBox="0 0 61 61" fill="none" xmlns="http://www.w3.org/2000/svg">
<path d="M44.1658 0H16.8334C7.55148 0 0 7.55184 0 16.8338V44.1662C0 53.4485 7.55148 61 16.8334 61H44.1658C53.4485 61 61 53.4482 61 44.1662V16.8338C61.0004 7.55184 53.4485 0 44.1658 0ZM55.5882 44.1662C55.5882 50.4642 50.4642 55.5878 44.1662 55.5878H16.8334C10.5358 55.5881 5.41222 50.4642 5.41222 44.1662V16.8338C5.41222 10.5361 10.5358 5.41222 16.8334 5.41222H44.1658C50.4639 5.41222 55.5878 10.5361 55.5878 16.8338V44.1662H55.5882Z" fill="#FFEC59"/>
<path d="M30.4999 14.7822C21.8328 14.7822 14.7817 21.8333 14.7817 30.5004C14.7817 39.1671 21.8328 46.2178 30.4999 46.2178C39.167 46.2178 46.218 39.1671 46.218 30.5004C46.218 21.8333 39.167 14.7822 30.4999 14.7822ZM30.4999 40.8052C24.8174 40.8052 20.194 36.1825 20.194 30.5C20.194 24.8172 24.8171 20.1941 30.4999 20.1941C36.1827 20.1941 40.8058 24.8172 40.8058 30.5C40.8058 36.1825 36.1824 40.8052 30.4999 40.8052Z" fill="#FFEC59"/>
<path d="M46.8774 10.1943C45.8347 10.1943 44.8103 10.6165 44.0739 11.3562C43.3338 12.0922 42.9084 13.1169 42.9084 14.1633C42.9084 15.2064 43.3342 16.2308 44.0739 16.9704C44.8099 17.7065 45.8347 18.1323 46.8774 18.1323C47.9238 18.1323 48.9449 17.7065 49.6845 16.9704C50.4242 16.2308 50.8464 15.206 50.8464 14.1633C50.8464 13.1169 50.4242 12.0922 49.6845 11.3562C48.9485 10.6165 47.9238 10.1943 46.8774 10.1943Z" fill="#FFEC59"/>
</svg>
