<svg width="60" height="61" viewBox="0 0 60 61" fill="none" xmlns="http://www.w3.org/2000/svg">
<path fill-rule="evenodd" clip-rule="evenodd" d="M51.2581 8.8438C45.6178 3.1438 38.1167 0.00334289 30.1255 0C13.6587 0 0.257212 13.5272 0.250589 30.1532C0.248381 35.4681 1.62386 40.6562 4.2383 45.2293L0 60.8555L15.8371 56.662C20.2009 59.0648 25.1137 60.331 30.1133 60.3325H30.1258C46.5907 60.3325 59.9937 46.8042 60 30.1774C60.0033 22.1195 56.8987 14.5434 51.2581 8.8438ZM30.1255 55.2398H30.1152C25.6598 55.2379 21.2901 54.0293 17.4772 51.7461L16.5709 51.2027L7.17287 53.6913L9.68134 44.4422L9.09074 43.494C6.60509 39.5033 5.29254 34.8909 5.29474 30.1551C5.2999 16.336 16.4391 5.09308 30.1354 5.09308C36.7677 5.09531 43.0023 7.70573 47.6902 12.4434C52.3782 17.181 54.9584 23.4782 54.9562 30.1755C54.9503 43.9958 43.8118 55.2398 30.1255 55.2398ZM43.7456 36.468C42.9993 36.0906 39.3292 34.2683 38.6448 34.0165C37.9611 33.7651 37.4628 33.6399 36.9657 34.3939C36.4678 35.1479 35.0375 36.8453 34.6019 37.3479C34.1662 37.8508 33.7312 37.914 32.9846 37.5366C32.238 37.1596 29.8329 36.3636 26.9815 33.7966C24.7627 31.7987 23.2646 29.3313 22.829 28.5773C22.394 27.8225 22.8253 27.454 23.1565 27.0395C23.9645 26.0266 24.7737 24.9647 25.0224 24.4622C25.2716 23.9592 25.1468 23.5191 24.9599 23.1421C24.7737 22.7651 23.2808 19.0563 22.659 17.5472C22.0525 16.0786 21.4377 16.2769 20.9792 16.2539C20.5442 16.232 20.0464 16.2275 19.5485 16.2275C19.051 16.2275 18.2422 16.4158 17.5578 17.1706C16.8737 17.925 14.9455 19.7476 14.9455 23.4563C14.9455 27.1651 17.6203 30.7479 17.9935 31.2508C18.3666 31.7537 23.2573 39.3644 30.7451 42.6278C32.5261 43.4048 33.9163 43.868 35.0007 44.2153C36.7891 44.7888 38.4159 44.7078 39.7023 44.5139C41.1367 44.2974 44.1183 42.6909 44.7409 40.9311C45.3628 39.1709 45.3628 37.6625 45.1759 37.3479C44.9897 37.0337 44.4918 36.8453 43.7456 36.468Z" fill="#FFEC59"/>
</svg>
