<svg width="26" height="26" viewBox="0 0 26 26" fill="none" xmlns="http://www.w3.org/2000/svg">
<path d="M25.0309 11.699L13.9647 0.473931C13.3392 -0.157977 12.3224 -0.157977 11.6969 0.473931C11.0698 1.10584 11.0698 2.13222 11.6969 2.76413L21.6341 12.844L11.6969 22.9238C11.0698 23.5558 11.0698 24.5821 11.6969 25.214C12.324 25.8459 13.3392 25.8459 13.9647 25.214L25.0293 13.989C25.6339 13.3814 25.6355 12.3085 25.0309 11.699Z" fill="#36310D"/>
<path d="M13.8044 11.699L2.73973 0.473931C2.11262 -0.157977 1.09744 -0.157977 0.471931 0.473931C-0.155177 1.10584 -0.155177 2.13222 0.471931 2.76413L10.4075 12.844L0.470331 22.9238C-0.156777 23.5558 -0.156777 24.5821 0.470331 25.214C1.09744 25.8459 2.11262 25.8459 2.73813 25.214L13.8028 13.989C14.4074 13.3814 14.409 12.3085 13.8044 11.699Z" fill="#36310D"/>
</svg>
