<svg width="26" height="26" viewBox="0 0 26 26" fill="none" xmlns="http://www.w3.org/2000/svg">
<path d="M0.452702 13.989L11.5189 25.2141C12.1445 25.846 13.1612 25.846 13.7867 25.2141C14.4139 24.5822 14.4139 23.5558 13.7867 22.9239L3.84954 12.844L13.7868 2.76414C14.4139 2.13224 14.4139 1.10585 13.7868 0.473946C13.1596 -0.157961 12.1445 -0.157961 11.519 0.473946L0.454301 11.699C-0.150278 12.3066 -0.151877 13.3795 0.452702 13.989Z" fill="#36310D"/>
<path d="M11.6793 13.989L22.7439 25.2141C23.371 25.846 24.3862 25.846 25.0117 25.2141C25.6388 24.5822 25.6388 23.5558 25.0117 22.9239L15.0761 12.844L25.0133 2.76414C25.6404 2.13224 25.6404 1.10585 25.0133 0.473946C24.3862 -0.157961 23.371 -0.157961 22.7455 0.473946L11.6809 11.699C11.0763 12.3066 11.0747 13.3795 11.6793 13.989Z" fill="#36310D"/>
</svg>
