<svg width="92" height="8" viewBox="0 0 92 8" fill="none" xmlns="http://www.w3.org/2000/svg">
<path d="M91.3536 4.35355C91.5488 4.15829 91.5488 3.84171 91.3536 3.64645L88.1716 0.464466C87.9763 0.269204 87.6597 0.269204 87.4645 0.464466C87.2692 0.659728 87.2692 0.976311 87.4645 1.17157L90.2929 4L87.4645 6.82843C87.2692 7.02369 87.2692 7.34027 87.4645 7.53553C87.6597 7.7308 87.9763 7.7308 88.1716 7.53553L91.3536 4.35355ZM56 4.5H91V3.5H56V4.5Z" fill="black"/>
<path d="M0.646447 3.64644C0.451184 3.84171 0.451184 4.15829 0.646447 4.35355L3.82843 7.53553C4.02369 7.73079 4.34027 7.73079 4.53553 7.53553C4.7308 7.34027 4.7308 7.02369 4.53553 6.82842L1.70711 4L4.53553 1.17157C4.7308 0.976308 4.7308 0.659726 4.53553 0.464463C4.34027 0.269201 4.02369 0.269201 3.82843 0.464463L0.646447 3.64644ZM36 3.5L1 3.5L1 4.5L36 4.5L36 3.5Z" fill="black"/>
</svg>
